<svg width="24" height="24" viewBox="0 0 24 24" fill="none" xmlns="http://www.w3.org/2000/svg">
<path fill-rule="evenodd" clip-rule="evenodd" d="M2 0C0.895431 0 0 0.89543 0 2V22C0 23.1046 0.89543 24 2 24H22C23.1046 24 24 23.1046 24 22V2C24 0.895431 23.1046 0 22 0H2ZM3 17.7793V6L8.22 6.00008C8.7498 6.00008 9.22777 6.04883 9.6648 6.14945C10.0992 6.24743 10.47 6.41093 10.7832 6.63498C11.0916 6.85951 11.3326 7.15817 11.5056 7.53391C11.6742 7.90422 11.7587 8.36733 11.7587 8.91574C11.7587 9.50883 11.6322 10.0041 11.3794 10.4004C11.1242 10.7954 10.7504 11.1198 10.2499 11.372C10.9314 11.5801 11.4359 11.9469 11.7704 12.4689C12.1068 12.994 12.271 13.6225 12.271 14.3591C12.271 14.9563 12.1636 15.4709 11.949 15.9034C11.732 16.3414 11.437 16.6964 11.0732 16.9701C10.7067 17.2461 10.2854 17.4494 9.81382 17.5814C9.3474 17.7129 8.86252 17.7793 8.36655 17.7793H3ZM14.7505 7.9525V6.79017H19.2388V7.9525H14.7505ZM7.7187 8.0062H5.43817V10.7594H7.9047C8.33677 10.7594 8.69415 10.6499 8.9775 10.4285C9.258 10.2112 9.39382 9.85106 9.39382 9.35723C9.39382 9.08306 9.34897 8.85685 9.25837 8.68107C9.16417 8.50537 9.03982 8.36773 8.88262 8.27158C8.72662 8.17144 8.55022 8.10171 8.34562 8.06452C8.14492 8.02247 7.93417 8.0062 7.7187 8.0062ZM15.4249 9.35659C15.9279 9.12535 16.4827 9.0087 17.0969 9.0087C17.7752 9.0087 18.3688 9.14793 18.8779 9.43063C19.3854 9.70974 19.8016 10.0876 20.1282 10.5609C20.4552 11.0336 20.6873 11.5734 20.8327 12.1798C20.9769 12.7846 21.0274 13.4171 20.986 14.0786H15.2013C15.2013 14.7531 15.4154 15.3911 15.7463 15.7337C16.0761 16.0763 16.5527 16.2493 17.1702 16.2493C17.6144 16.2493 17.9986 16.1293 18.3207 15.8909C18.6394 15.6533 18.8337 15.3994 18.9087 15.1355H20.8474C20.5357 16.1619 20.063 16.8946 19.4181 17.3357C18.7804 17.7789 18.0029 18 17.0969 18C16.4653 18 15.8971 17.8916 15.3867 17.677C14.8767 17.4605 14.4507 17.156 14.0922 16.7596C13.7428 16.3616 13.4715 15.891 13.278 15.3386C13.0867 14.7884 12.9904 14.1801 12.9904 13.5204C12.9904 12.8826 13.0901 12.2869 13.286 11.7363C13.4859 11.1839 13.7626 10.7071 14.126 10.3073C14.4901 9.90515 14.922 9.5883 15.4249 9.35659ZM18.2763 11.2528C18.0148 10.9446 17.5711 10.7777 17.0304 10.7777V10.7778C16.6786 10.7778 16.3879 10.8407 16.1547 10.969C15.9268 11.0956 15.7396 11.2539 15.5967 11.4395C15.4546 11.6283 15.3579 11.8274 15.3017 12.0403C15.2448 12.2478 15.2115 12.4361 15.2013 12.6024H18.7837C18.7312 12.0053 18.539 11.5631 18.2763 11.2528ZM8.0883 12.5298H5.43825L5.43817 15.7731H8.03962C8.28037 15.7731 8.5086 15.7507 8.72325 15.6997C8.94135 15.6487 9.13492 15.5684 9.29782 15.4494C9.46087 15.3353 9.59557 15.178 9.69382 14.9789C9.79237 14.7817 9.83977 14.5256 9.83977 14.2156C9.83977 13.6087 9.67882 13.1774 9.3594 12.9157C9.03945 12.6576 8.613 12.5298 8.0883 12.5298Z" fill="#73AC3B"/>
</svg>
