<svg width="24" height="24" viewBox="0 0 24 24" fill="none" xmlns="http://www.w3.org/2000/svg">
<path fill-rule="evenodd" clip-rule="evenodd" d="M0 2C0 1.99289 3.71125e-05 1.98579 0.000111154 1.97869L0 2ZM1.98286 7.18923e-05C0.893281 0.00921675 0.0114785 0.889642 0.000111154 1.97869L9.59151e-05 10.0304L0.000142558 12.0002L7.98718e-05 13.6974L0 16.1866L9.64015e-05 22.0198C0.0107439 23.1153 0.902052 24 2 24H22C23.1046 24 24 23.1046 24 22V2C24 0.905069 23.1201 0.0156428 22.0289 0.000204083C22.0193 6.81797e-05 22.0096 0 22 0L22.0289 0.000204083L13.696 0.000157749L12.0001 0.000165918L10.2817 9.7178e-05L7.29718 0H7.29615L1.98286 7.18923e-05ZM1.98286 7.18923e-05C1.98857 2.39961e-05 1.99428 0 2 0ZM18.1441 10.9332L16.5501 12.0002L18.1441 13.0672V10.9332ZM19.4201 14.2612C19.42 14.2889 19.418 14.3167 19.4141 14.3442L19.4091 14.3722L19.3981 14.4252L19.3881 14.4562C19.3831 14.4722 19.3781 14.4872 19.3711 14.5032L19.3571 14.5332C19.3506 14.5477 19.3436 14.562 19.3361 14.5762L19.3171 14.6062C19.2943 14.6424 19.2675 14.6759 19.2371 14.7062L19.2111 14.7312C19.1995 14.7416 19.1875 14.7516 19.1751 14.7612L19.1461 14.7832L19.1361 14.7912L12.3541 19.3132C12.2494 19.3832 12.1262 19.4206 12.0001 19.4206C11.8741 19.4206 11.7509 19.3832 11.6461 19.3132L4.86414 14.7902L4.85414 14.7822C4.8313 14.7664 4.80958 14.749 4.78914 14.7302L4.76314 14.7052L4.73114 14.6712L4.71014 14.6432C4.68385 14.6091 4.66138 14.5722 4.64314 14.5332L4.62914 14.5022C4.62287 14.4867 4.6172 14.471 4.61214 14.4552L4.60214 14.4252C4.59814 14.4072 4.59414 14.3892 4.59214 14.3712L4.58614 14.3432C4.58231 14.3157 4.58031 14.2879 4.58014 14.2602V9.73916C4.58014 9.71116 4.58214 9.68416 4.58614 9.65616L4.59114 9.62916L4.60214 9.57516L4.61214 9.54516C4.63585 9.46495 4.67681 9.39089 4.73214 9.32816L4.76314 9.29416L4.78914 9.26916C4.80962 9.25039 4.83134 9.23302 4.85414 9.21716L4.86414 9.20916L11.6461 4.68817C11.751 4.61826 11.8741 4.58095 12.0001 4.58095C12.1261 4.58095 12.2493 4.61826 12.3541 4.68817L19.1361 9.20916L19.1461 9.21716L19.1761 9.23916L19.2111 9.26916C19.2186 9.27512 19.2244 9.28107 19.2305 9.28744C19.2327 9.28962 19.2348 9.29186 19.2371 9.29416C19.2677 9.32424 19.2945 9.3578 19.3171 9.39416L19.3361 9.42416C19.3437 9.43823 19.3507 9.45257 19.3571 9.46716L19.3711 9.49716C19.3772 9.51091 19.3817 9.52465 19.386 9.53776L19.3881 9.54416L19.3981 9.57516C19.4021 9.59316 19.4061 9.61116 19.4081 9.62916L19.4141 9.65616C19.418 9.68366 19.42 9.71139 19.4201 9.73916V14.2612ZM12.0001 10.4922L9.74514 12.0002L12.0001 13.5102L14.2551 12.0002L12.0001 10.4922ZM12.6381 17.5912L17.6341 14.2612L15.4021 12.7682L12.6381 14.6162V17.5912ZM6.36614 14.2602L11.3621 17.5902V14.6162L8.59814 12.7672L6.36614 14.2602ZM17.6341 9.74016L12.6381 6.41017V9.38416L15.4021 11.2342L17.6341 9.74016ZM11.3621 9.38416V6.41017L6.36614 9.74016L8.59814 11.2332L11.3621 9.38416ZM5.85614 13.0672L7.45014 12.0002L5.85614 10.9332V13.0672Z" fill="#73AC3B"/>
</svg>
