<svg width="24" height="24" viewBox="0 0 24 24" fill="none" xmlns="http://www.w3.org/2000/svg">
<path fill-rule="evenodd" clip-rule="evenodd" d="M2 0C0.895431 0 0 0.89543 0 2V22C0 23.1046 0.89543 24 2 24H22C23.1046 24 24 23.1046 24 22V2C24 0.895431 23.1046 0 22 0H2ZM5.24205 3.56212C5.35455 3.22795 5.67539 3.00084 6.03789 3.00084V3.00002H6.04289C6.21789 2.9999 6.38837 3.0541 6.52955 3.15475C6.67072 3.2554 6.77524 3.39725 6.8279 3.55969L8.83624 9.56836H15.1671L17.1713 3.55969C17.2243 3.39632 17.3296 3.2538 17.472 3.15306C17.6143 3.05232 17.7861 2.99868 17.9621 3.00002C18.1381 2.99911 18.3099 3.05223 18.4531 3.15184C18.5963 3.25144 18.7036 3.39246 18.7596 3.55482C19.0525 4.43213 19.3665 5.37364 19.6923 6.35046C20.4177 8.52549 21.2015 10.8756 21.9405 13.0821C22.0194 13.3165 22.0198 13.5693 21.9417 13.804C21.8635 14.0387 21.7108 14.2432 21.5055 14.388L12.2779 20.9093C12.1129 21.0293 11.8863 21.0301 11.7196 20.9125L2.4937 14.3871C2.28905 14.2424 2.13673 14.0384 2.05858 13.8042C1.98043 13.5701 1.98047 13.3178 2.0587 13.0837C3.0387 10.158 4.19955 6.68731 5.24205 3.56212ZM7.84374 9.56917L6.03289 4.15261L4.22955 9.56917H7.84374ZM19.778 9.56917L17.9713 4.15261L16.1605 9.56917H19.778ZM14.8621 10.4873H9.14374V10.4882L12.0004 19.0518C12.9554 16.1975 13.9104 13.3424 14.8621 10.4873ZM8.14957 10.4914H4.54871L10.7213 18.1969L8.14957 10.4914ZM19.4588 10.4914H15.8546C15.3494 12.0084 14.8429 13.5252 14.3365 15.0418C13.9852 16.0941 13.6339 17.1463 13.2829 18.1985C14.4646 16.7151 15.6524 15.236 16.8402 13.7569C17.7139 12.669 18.5875 11.5811 19.4588 10.4914ZM9.56458 18.2537L3.75038 10.9967L2.95704 13.3684C2.94055 13.4182 2.94071 13.4718 2.95748 13.5215C2.97425 13.5712 3.00677 13.6144 3.05037 13.645L9.56458 18.2537ZM21.0422 13.3668L20.2488 10.9967L14.4554 18.2237L14.4338 18.2521L20.9505 13.645V13.6434C20.9938 13.6126 21.026 13.5692 21.0424 13.5196C21.0589 13.4699 21.0588 13.4164 21.0422 13.3668Z" fill="#73AC3B"/>
</svg>
