<svg width="100" height="50" viewBox="0 0 100 50" fill="none" xmlns="http://www.w3.org/2000/svg">
<rect width="100" height="50" rx="5" fill="#1C1B21"/>
<path fill-rule="evenodd" clip-rule="evenodd" d="M52.1111 20C52.1111 14.4771 47.6091 10 42.0556 10C36.502 10 32 14.4771 32 20V40H37.0278C45.358 40 52.1111 33.2842 52.1111 25V20ZM42.0556 12C37.6128 12 34.0111 15.5818 34.0111 20C34.0111 24.4183 37.6128 28 42.0556 28C46.4984 28 50.1 24.4183 50.1 20C50.1 15.5818 46.4984 12 42.0556 12Z" fill="#C4C4C4"/>
<path fill-rule="evenodd" clip-rule="evenodd" d="M52.1111 10H32C32 13.1915 32.7517 16.2084 34.0886 18.8852C34.6341 14.9946 37.9932 12 42.0556 12C46.4984 12 50.1 15.5817 50.1 20C50.1 24.04 47.0888 27.3805 43.1766 27.9229C45.8682 29.2524 48.9019 30 52.1111 30H72.2222C72.2222 18.9543 63.2182 10 52.1111 10Z" fill="#73AC3B"/>
<path d="M33.6086 20.4C33.6086 25.0392 37.3903 28.8 42.0553 28.8C46.7203 28.8 50.502 25.0392 50.502 20.4C50.502 15.7608 46.7203 12 42.0553 12C37.3903 12 33.6086 15.7608 33.6086 20.4Z" fill="#C4C4C4"/>
<path fill-rule="evenodd" clip-rule="evenodd" d="M37.0278 20C37.0278 22.7614 39.2788 25 42.0556 25C44.8324 25 47.0834 22.7614 47.0834 20C47.0834 19.5296 47.0181 19.0743 46.896 18.6427C46.6009 18.9839 46.1636 19.2 45.6756 19.2C44.787 19.2 44.0667 18.4836 44.0667 17.6C44.0667 16.8899 44.5318 16.288 45.1754 16.0788C44.3182 15.4034 43.2343 15 42.0556 15C39.2788 15 37.0278 17.2386 37.0278 20Z" fill="#1C1B21"/>
</svg>
