<svg width="24" height="24" viewBox="0 0 24 24" fill="none" xmlns="http://www.w3.org/2000/svg">
<g clip-path="url(#clip0)">
<path d="M11.9442 3.26667e-05C8.96284 0.0139458 11.5842 0.00167128 2.00274 0.000418377C0.89819 0.000273942 0.000183814 0.898676 0.000184774 2.00322C0.000193145 11.6417 0.00015323 9.01771 0.000185705 12C0.000185705 14.9914 -0.000106923 12.3594 4.24906e-05 21.9971C5.96147e-05 23.1016 0.898437 24 2.00299 24C11.6408 24 9.00877 24 12.0002 24C14.9916 24 12.3596 24 21.9972 24C23.1018 24 24.0002 23.1016 24.0002 21.9971C24.0002 12.3594 24.0002 14.9914 24.0002 12C24.0002 9.00863 24.0002 11.6406 24.0002 2.00319C24.0002 0.898633 23.1015 0.000257026 21.9969 0.000232318C12.3085 1.55923e-05 14.9925 3.26667e-05 12.0002 3.26667e-05C11.9815 -1.08889e-05 11.9629 -1.08889e-05 11.9442 3.26667e-05ZM16.9062 7.22403C17.0062 7.22203 17.2272 7.24703 17.3712 7.36403C17.4669 7.44713 17.5279 7.56311 17.5422 7.68903C17.5582 7.78203 17.5782 7.99503 17.5622 8.16103C17.3822 10.059 16.6002 14.663 16.2022 16.788C16.0342 17.688 15.7032 17.989 15.3822 18.018C14.6862 18.083 14.1572 17.558 13.4822 17.116C12.4262 16.423 11.8292 15.992 10.8042 15.316C9.61919 14.536 10.3872 14.106 11.0622 13.406C11.2392 13.222 14.3092 10.429 14.3692 10.176C14.3762 10.144 14.3832 10.026 14.3132 9.96403C14.2432 9.90203 14.1392 9.92303 14.0642 9.94003C13.9582 9.96403 12.2712 11.08 9.00319 13.285C8.52319 13.615 8.09018 13.775 7.70118 13.765C7.27318 13.757 6.44919 13.524 5.83619 13.325C5.08419 13.08 4.48719 12.951 4.53919 12.536C4.56619 12.32 4.86419 12.099 5.43219 11.873C8.93019 10.349 11.2622 9.34403 12.4302 8.85903C15.7622 7.47303 16.4552 7.23203 16.9062 7.22403Z" fill="#73AC3B"/>
</g>
<defs>
<clipPath id="clip0">
<rect width="24" height="24" fill="white"/>
</clipPath>
</defs>
</svg>
